<?xml version="1.0" encoding="UTF-8"?><svg version="1.1" width="295px" height="299px" viewBox="0 0 295.0 299.0" xmlns="http://www.w3.org/2000/svg" xmlns:xlink="http://www.w3.org/1999/xlink"><defs><clipPath id="i0"><path d="M295,0 L295,299 L0,299 L0,83 C0,37.1603658 37.1603658,0 83,0 L295,0 Z"></path></clipPath><clipPath id="i1"><path d="M295,0 L295,299 L0,299 L0,0 L295,0 Z"></path></clipPath><linearGradient id="i2" x1="3.22398358e-14px" y1="1.10219993e-14px" x2="457.524802px" y2="463.653304px" gradientUnits="userSpaceOnUse"><stop stop-color="#F3A950" offset="0%"></stop><stop stop-color="#F3A950" offset="41.2752534%"></stop><stop stop-color="#2B3251" offset="100%"></stop></linearGradient><clipPath id="i3"><path d="M97.3,0 L110,24.8 L24.5,194.3 L0,194.3 L97.3,0 Z M121.8,48.8 L133.5,73.3 L109.7,121.6 L157.9,121.6 L194.2,193.9 L170.7,193.9 L146.1,145.7 L73.7,145.7 L121.8,48.8 Z"></path></clipPath><clipPath id="i4"><path d="M194.2,0 L194.2,194.3 L0,194.3 L0,0 L194.2,0 Z"></path></clipPath></defs><g clip-path="url(#i0)"><g clip-path="url(#i1)"><polygon points="0,0 295,0 295,299 0,299 0,0" stroke="none" fill="url(#i2)"></polygon></g><path d="M83,0 L295,0 L295,0 L295,299 L0,299 L0,83 C0,37.1603658 37.1603658,0 83,0 Z" stroke="#000000" stroke-width="20" fill="none" stroke-miterlimit="10"></path></g><g transform="translate(50.0 51.99999999999997)"><g clip-path="url(#i3)"><g clip-path="url(#i4)"><polygon points="0,0 194.2,0 194.2,194.3 0,194.3 0,0" stroke="none" fill="#161B20"></polygon></g></g></g></svg>